HIERARCHY
ROOT CG
{
	OFFSET 0.000000 0.000000 27.772259
	CHANNELS 6 Xposition Yposition Zposition Xrotation Yrotation Zrotation
	JOINT Pelvis
	{
		OFFSET 0.000000 0.000000 0.000000
		CHANNELS 3 Xrotation Yrotation Zrotation
		JOINT Spine
		{
			OFFSET -0.000017 -10.490843 -0.495483
			CHANNELS 3 Xrotation Yrotation Zrotation
			JOINT Spine1
			{
				OFFSET -0.000010 -22.678980 0.018061
				CHANNELS 3 Xrotation Yrotation Zrotation
				JOINT Spine2
				{
					OFFSET -0.000010 -22.678967 0.018061
					CHANNELS 3 Xrotation Yrotation Zrotation
					JOINT Spine3
					{
						OFFSET -0.000010 -22.678982 0.018059
						CHANNELS 3 Xrotation Yrotation Zrotation
						JOINT Neck
						{
							OFFSET -0.000012 -22.678986 -1.289251
							CHANNELS 3 Xrotation Yrotation Zrotation
							JOINT Neck1
							{
								OFFSET -0.000007 -16.255905 0.012947
								CHANNELS 3 Xrotation Yrotation Zrotation
								JOINT Head
								{
									OFFSET -0.000005 -10.784607 -0.287502
									CHANNELS 3 Xrotation Yrotation Zrotation
									JOINT Jaw01
									{
										OFFSET 0.000031 7.782959 5.073944
										CHANNELS 3 Xrotation Yrotation Zrotation
										JOINT Jaw02
										{
											OFFSET 0.000004 -34.927139 -18.883980
											CHANNELS 3 Xrotation Yrotation Zrotation
											End Site
											{
												OFFSET -0.000170 8.372803 -38.812450
											}
										}
									}
									JOINT Nose
									{
										OFFSET -0.000002 -25.700912 7.222265
										CHANNELS 3 Xrotation Yrotation Zrotation
										End Site
										{
											OFFSET -0.000090 0.641281 -21.715439
										}
									}
									JOINT L_EyeSocket
									{
										OFFSET 7.352326 -19.832718 14.164183
										CHANNELS 3 Xrotation Yrotation Zrotation
										JOINT L_Eye
										{
											OFFSET -0.000868 -0.001053 0.016003
											CHANNELS 3 Xrotation Yrotation Zrotation
											End Site
											{
												OFFSET -0.001505 -0.001846 0.027969
											}
										}
										JOINT L_Eyelid_Top
										{
											OFFSET -0.001004 -0.002625 0.032516
											CHANNELS 3 Xrotation Yrotation Zrotation
											End Site
											{
												OFFSET -0.013218 0.005753 0.024086
											}
										}
										JOINT L_Eyelid_Bottom
										{
											OFFSET -0.001194 -0.002777 0.035381
											CHANNELS 3 Xrotation Yrotation Zrotation
											End Site
											{
												OFFSET -0.010032 0.008636 -0.024754
											}
										}
									}
									JOINT R_EyeSocket
									{
										OFFSET -7.352252 -19.832748 14.164206
										CHANNELS 3 Xrotation Yrotation Zrotation
										JOINT R_Eye
										{
											OFFSET 0.000875 -0.001068 0.015991
											CHANNELS 3 Xrotation Yrotation Zrotation
											End Site
											{
												OFFSET 0.001505 -0.001846 0.027962
											}
										}
										JOINT R_Eyelid_Top
										{
											OFFSET 0.001021 -0.002625 0.032516
											CHANNELS 3 Xrotation Yrotation Zrotation
											End Site
											{
												OFFSET 0.013214 0.005753 0.024078
											}
										}
										JOINT R_Eyelid_Bottom
										{
											OFFSET 0.001170 -0.002762 0.035366
											CHANNELS 3 Xrotation Yrotation Zrotation
											End Site
											{
												OFFSET 0.010029 0.008636 -0.024746
											}
										}
									}
								}
								JOINT Neck_Fat
								{
									OFFSET 0.000044 -9.595100 -17.491512
									CHANNELS 3 Xrotation Yrotation Zrotation
									End Site
									{
										OFFSET -0.000036 15.369423 -0.000007
									}
								}
							}
						}
						JOINT L_Clavicle
						{
							OFFSET 4.567107 -11.666092 -3.750029
							CHANNELS 3 Xrotation Yrotation Zrotation
							JOINT L_UpperArm
							{
								OFFSET 20.725666 -0.000053 -0.000032
								CHANNELS 3 Xrotation Yrotation Zrotation
								JOINT L_Forearm
								{
									OFFSET 5.265112 -0.585754 -20.155697
									CHANNELS 3 Xrotation Yrotation Zrotation
									JOINT L_Hand
									{
										OFFSET 2.653017 -10.877708 -16.383667
										CHANNELS 3 Xrotation Yrotation Zrotation
										JOINT L_Finger0
										{
											OFFSET -4.206146 -4.328911 -5.034346
											CHANNELS 3 Xrotation Yrotation Zrotation
											JOINT L_Finger01
											{
												OFFSET 0.084272 -1.788536 -4.181065
												CHANNELS 3 Xrotation Yrotation Zrotation
												End Site
												{
													OFFSET 3.261885 3.094673 -0.685818
												}
											}
										}
										JOINT L_Finger1
										{
											OFFSET -1.039112 -6.775742 -3.499998
											CHANNELS 3 Xrotation Yrotation Zrotation
											JOINT L_Finger11
											{
												OFFSET 1.320335 -3.040672 -6.425793
												CHANNELS 3 Xrotation Yrotation Zrotation
												End Site
												{
													OFFSET -1.244579 6.832077 -2.013330
												}
											}
										}
										JOINT L_Finger2
										{
											OFFSET 2.531296 -5.656487 -3.286415
											CHANNELS 3 Xrotation Yrotation Zrotation
											JOINT L_Finger21
											{
												OFFSET 1.991665 -2.402016 -5.957748
												CHANNELS 3 Xrotation Yrotation Zrotation
												End Site
												{
													OFFSET -2.793068 5.800873 -1.944178
												}
											}
										}
										JOINT L_Finger3
										{
											OFFSET 5.474075 -3.302338 -2.655975
											CHANNELS 3 Xrotation Yrotation Zrotation
											JOINT L_Finger31
											{
												OFFSET 2.026943 -1.267532 -5.961166
												CHANNELS 3 Xrotation Yrotation Zrotation
												End Site
												{
													OFFSET -4.375172 4.343658 -1.800320
												}
											}
										}
										JOINT L_Finger4
										{
											OFFSET 4.825745 1.085899 -2.321970
											CHANNELS 3 Xrotation Yrotation Zrotation
											JOINT L_Finger41
											{
												OFFSET 3.358261 -1.829651 -3.744434
												CHANNELS 3 Xrotation Yrotation Zrotation
												End Site
												{
													OFFSET -3.843296 2.955200 -2.267633
												}
											}
										}
									}
								}
							}
						}
						JOINT R_Clavicle
						{
							OFFSET -4.567111 -11.666092 -3.750036
							CHANNELS 3 Xrotation Yrotation Zrotation
							JOINT R_UpperArm
							{
								OFFSET -20.725670 -0.000031 0.000038
								CHANNELS 3 Xrotation Yrotation Zrotation
								JOINT R_Forearm
								{
									OFFSET -5.265285 -0.585762 -20.155655
									CHANNELS 3 Xrotation Yrotation Zrotation
									JOINT R_Hand
									{
										OFFSET -2.653147 -10.877739 -16.383663
										CHANNELS 3 Xrotation Yrotation Zrotation
										JOINT R_Finger0
										{
											OFFSET 4.206116 -4.328888 -5.034388
											CHANNELS 3 Xrotation Yrotation Zrotation
											JOINT R_Finger01
											{
												OFFSET -0.084324 -1.788544 -4.181051
												CHANNELS 3 Xrotation Yrotation Zrotation
												End Site
												{
													OFFSET -3.261890 3.094666 -0.685791
												}
											}
										}
										JOINT R_Finger1
										{
											OFFSET 1.039101 -6.775711 -3.499994
											CHANNELS 3 Xrotation Yrotation Zrotation
											JOINT R_Finger11
											{
												OFFSET -1.320374 -3.040672 -6.425779
												CHANNELS 3 Xrotation Yrotation Zrotation
												End Site
												{
													OFFSET 1.244556 6.832077 -2.013342
												}
											}
										}
										JOINT R_Finger2
										{
											OFFSET -2.531307 -5.656464 -3.286409
											CHANNELS 3 Xrotation Yrotation Zrotation
											JOINT R_Finger21
											{
												OFFSET -1.991707 -2.402016 -5.957708
												CHANNELS 3 Xrotation Yrotation Zrotation
												End Site
												{
													OFFSET 2.793037 5.800858 -1.944197
												}
											}
										}
										JOINT R_Finger3
										{
											OFFSET -5.474091 -3.302330 -2.655947
											CHANNELS 3 Xrotation Yrotation Zrotation
											JOINT R_Finger31
											{
												OFFSET -2.026993 -1.267532 -5.961157
												CHANNELS 3 Xrotation Yrotation Zrotation
												End Site
												{
													OFFSET 4.375156 4.343674 -1.800358
												}
											}
										}
										JOINT R_Finger4
										{
											OFFSET -4.825756 1.085922 -2.321926
											CHANNELS 3 Xrotation Yrotation Zrotation
											JOINT R_Finger41
											{
												OFFSET -3.358307 -1.829651 -3.744390
												CHANNELS 3 Xrotation Yrotation Zrotation
												End Site
												{
													OFFSET 3.843273 2.955208 -2.267666
												}
											}
										}
									}
								}
							}
						}
					}
				}
			}
		}
		JOINT Tail01
		{
			OFFSET -0.000010 10.922326 -0.017508
			CHANNELS 3 Xrotation Yrotation Zrotation
			JOINT Tail02
			{
				OFFSET -0.000022 21.986111 0.000013
				CHANNELS 3 Xrotation Yrotation Zrotation
				JOINT Tail03
				{
					OFFSET -0.000022 21.986118 0.000002
					CHANNELS 3 Xrotation Yrotation Zrotation
					JOINT Tail04
					{
						OFFSET -0.000022 21.986122 0.000004
						CHANNELS 3 Xrotation Yrotation Zrotation
						JOINT Tail05
						{
							OFFSET -0.000022 21.986099 0.000010
							CHANNELS 3 Xrotation Yrotation Zrotation
							JOINT Tail06
							{
								OFFSET -0.000022 21.986099 0.000006
								CHANNELS 3 Xrotation Yrotation Zrotation
								JOINT Tail07
								{
									OFFSET -0.000022 21.986099 0.000000
									CHANNELS 3 Xrotation Yrotation Zrotation
									JOINT Tail08
									{
										OFFSET -0.000022 21.984848 0.000050
										CHANNELS 3 Xrotation Yrotation Zrotation
										JOINT Tail09
										{
											OFFSET -0.000025 21.926025 -1.606211
											CHANNELS 3 Xrotation Yrotation Zrotation
											JOINT Tail10
											{
												OFFSET -0.000027 21.750092 -3.203882
												CHANNELS 3 Xrotation Yrotation Zrotation
												End Site
												{
													OFFSET -0.000036 4.767395 21.461668
												}
											}
										}
									}
								}
							}
						}
					}
				}
			}
		}
		JOINT L_Thigh
		{
			OFFSET 24.788780 0.000021 -0.000034
			CHANNELS 3 Xrotation Yrotation Zrotation
			JOINT L_Calf
			{
				OFFSET 4.720837 4.161326 -21.049969
				CHANNELS 3 Xrotation Yrotation Zrotation
				JOINT L_Foot
				{
					OFFSET 2.154160 21.114433 -11.949743
					CHANNELS 3 Xrotation Yrotation Zrotation
					JOINT L_Toe0
					{
						OFFSET 4.557564 9.251841 -8.735286
						CHANNELS 3 Xrotation Yrotation Zrotation
						End Site
						{
							OFFSET 4.555542 -12.646044 1.018752
						}
					}
					JOINT L_Toe1
					{
						OFFSET 2.346291 5.845602 -11.687160
						CHANNELS 3 Xrotation Yrotation Zrotation
						End Site
						{
							OFFSET 5.347954 -12.298279 1.365644
						}
					}
					JOINT L_Toe2
					{
						OFFSET -0.356020 3.902458 -12.541145
						CHANNELS 3 Xrotation Yrotation Zrotation
						End Site
						{
							OFFSET 3.916235 -12.806129 1.542549
						}
					}
					JOINT L_Toe3
					{
						OFFSET -4.603447 3.183935 -12.435249
						CHANNELS 3 Xrotation Yrotation Zrotation
						End Site
						{
							OFFSET 3.810858 -12.587427 2.957583
						}
					}
					JOINT L_Toe4
					{
						OFFSET -7.144358 6.231495 -10.072764
						CHANNELS 3 Xrotation Yrotation Zrotation
						End Site
						{
							OFFSET 3.810858 -12.587425 2.957585
						}
					}
				}
			}
		}
		JOINT R_Thigh
		{
			OFFSET -24.788780 -0.000024 0.000034
			CHANNELS 3 Xrotation Yrotation Zrotation
			JOINT R_Calf
			{
				OFFSET -4.720922 4.161324 -21.049952
				CHANNELS 3 Xrotation Yrotation Zrotation
				JOINT R_Foot
				{
					OFFSET -2.154238 21.114414 -11.949730
					CHANNELS 3 Xrotation Yrotation Zrotation
					JOINT R_Toe0
					{
						OFFSET -4.557598 9.251823 -8.735270
						CHANNELS 3 Xrotation Yrotation Zrotation
						End Site
						{
							OFFSET -4.555508 -12.646051 1.018756
						}
					}
					JOINT R_Toe1
					{
						OFFSET -2.346325 5.845589 -11.687157
						CHANNELS 3 Xrotation Yrotation Zrotation
						End Site
						{
							OFFSET -5.347919 -12.298286 1.365654
						}
					}
					JOINT R_Toe2
					{
						OFFSET 0.355980 3.902462 -12.541145
						CHANNELS 3 Xrotation Yrotation Zrotation
						End Site
						{
							OFFSET -3.916199 -12.806131 1.542559
						}
					}
					JOINT R_Toe3
					{
						OFFSET 4.603411 3.183941 -12.435266
						CHANNELS 3 Xrotation Yrotation Zrotation
						End Site
						{
							OFFSET -3.810825 -12.587429 2.957591
						}
					}
					JOINT R_Toe4
					{
						OFFSET 7.144323 6.231503 -10.072779
						CHANNELS 3 Xrotation Yrotation Zrotation
						End Site
						{
							OFFSET -3.810825 -12.587433 2.957584
						}
					}
				}
			}
		}
	}
}
MOTION
Frames: 4
Frame Time: 0.033333
-11.992709 0.000001 36.000000 -0.000000 0.000000 -0.000051 -0.000001 -0.000000 -13.456100 -0.000523 -0.004762 -6.261540 0.000385 0.010527 -5.489128 -0.006262 0.006569 -4.836693 -0.004755 -0.041585 -2.573514 -0.000013 0.000047 -11.556157 -0.000004 0.000096 -12.146774 0.004788 -0.000178 -0.205839 -16.238075 -0.000023 0.000026 0.000015 -0.000000 0.000001 0.000000 0.000000 -0.000003 -0.000004 0.000007 -0.000015 0.000130 -0.000081 0.000011 0.000004 -0.000003 0.000001 0.000004 -0.000007 0.000006 0.000001 0.000000 -0.000000 0.000128 0.000082 -0.000034 0.000003 -0.000007 -0.000001 -0.000003 0.000004 -0.000002 0.000000 0.000007 -0.000001 0.000688 18.444526 11.355447 89.420454 -25.163445 27.100954 5.390465 -0.773021 1.467342 18.012822 0.288945 -12.859547 6.819310 7.693811 -4.438969 -4.451959 8.284899 -5.021200 -10.860569 -2.178468 -1.348723 -10.859442 -2.186554 -1.345244 -9.886543 -4.996728 -1.646939 -9.885877 -4.998711 -1.647423 -7.740660 -7.966056 -1.424553 -7.745949 -7.971621 -1.426221 -6.446424 -9.014049 -1.708319 -6.442754 -9.018789 -1.709039 0.001130 -15.425487 -10.175361 87.938522 18.660145 -15.947927 5.331848 0.765387 -1.451091 13.277142 -5.371181 5.843842 13.939794 -0.095268 1.684729 7.965933 4.735942 -0.227600 7.898350 -1.725526 -0.708689 7.476820 -1.641151 -0.677580 7.137600 -3.788472 -0.647241 6.760315 -3.585007 -0.626445 5.558051 -5.900934 -0.349786 5.262669 -5.587090 -0.354152 4.563248 -6.679687 -0.602294 4.321986 -6.317182 -0.589665 0.634058 -4.951838 7.648898 0.986225 -0.229590 10.972272 0.384766 -0.228081 4.249503 0.521440 -0.226175 5.354235 1.003695 -0.219315 9.704690 1.457962 -0.199672 13.316632 1.860882 -0.180994 15.912725 1.889930 1.148877 18.142934 1.628019 3.064139 22.158754 0.294368 6.149721 24.595837 39.757732 0.429948 -4.597932 -2.986076 -0.065804 -0.688004 40.166871 -2.877290 9.155556 0.002509 0.004593 0.001255 0.001441 0.008367 0.000795 0.004207 -0.002124 0.006017 0.002521 0.003422 -0.008413 0.002839 0.003747 -0.001726 7.385095 2.797002 2.494428 30.435603 -2.640331 -6.472835 35.466713 1.272092 -1.658645 14.851866 -6.554672 -4.804978 14.878090 -7.494307 -3.294928 16.254315 -5.325552 -0.855964 16.538465 -4.476898 1.834730 16.254751 -3.122627 5.011276 
-13.865157 0.000002 36.000000 -0.000000 0.000000 -0.000051 -0.000001 -0.000000 -12.653000 -0.000462 -0.004770 -5.369931 -0.000751 -0.000999 -5.264921 0.011827 -0.003289 -4.598119 -0.059888 -0.053145 -3.021427 -0.000013 0.000047 -12.217643 -0.000005 0.000096 -13.021650 0.016167 0.050208 -0.270881 -16.244015 -0.000021 0.000024 0.000011 -0.000000 0.000001 0.000000 0.000000 -0.000006 -0.000005 0.000007 -0.000017 0.000130 -0.000081 0.000010 0.000000 -0.000005 0.000001 0.000004 -0.000003 0.000005 0.000001 0.000000 -0.000003 0.000128 0.000081 -0.000032 0.000004 -0.000007 -0.000001 -0.000000 0.000003 -0.000000 0.000000 0.000007 -0.000003 0.000065 18.341966 11.246110 88.158488 -26.051354 24.470334 2.771326 -0.415036 0.745979 18.507229 0.841675 -12.752161 7.216817 7.252365 -4.308671 -4.093240 7.880671 -4.903925 -10.309541 -2.073744 -1.269178 -10.308148 -2.082269 -1.267309 -9.381781 -4.749445 -1.542083 -9.380514 -4.753027 -1.543159 -7.337272 -7.563346 -1.324302 -7.346108 -7.573212 -1.327447 -6.114069 -8.558813 -1.595702 -6.106968 -8.567248 -1.597124 0.001249 -15.636403 -10.425374 88.632093 18.994312 -17.326920 6.082559 0.861991 -1.660488 11.648581 -5.205140 6.040524 13.470923 -0.574655 1.891407 7.010399 3.821396 0.256087 6.624734 -1.439689 -0.611185 6.133316 -1.339709 -0.571589 5.986836 -3.172480 -0.576199 5.546052 -2.935234 -0.544972 4.660078 -4.946903 -0.334998 4.316152 -4.580291 -0.328284 3.828388 -5.596665 -0.540525 3.546767 -5.178106 -0.518560 0.635745 -4.949932 7.670955 0.963862 -0.222383 10.799401 0.344352 -0.220777 3.871629 0.446046 -0.219133 4.673096 0.891951 -0.214163 8.680722 1.300691 -0.198233 11.978118 1.654317 -0.183257 14.353535 1.693842 1.029139 16.528160 1.473998 2.869243 20.809121 0.227247 5.827535 23.838940 39.496529 -0.167471 -3.925676 -2.576897 -0.058907 -0.593546 41.180908 -1.918661 8.403766 -0.000001 -0.000006 -0.000001 -0.000002 -0.000003 -0.000000 0.000402 -0.001355 0.000165 -0.001304 0.004299 -0.001007 -0.001541 0.005113 -0.001200 8.114939 2.342469 2.779632 29.666203 -2.532212 -6.329245 34.564196 1.742248 -2.161991 14.991089 -6.622988 -4.842264 15.018473 -7.569507 -3.316626 16.407349 -5.381369 -0.861142 16.698493 -4.509448 1.863563 16.413394 -3.136558 5.061128 
-15.565919 0.000002 36.000000 -0.000000 0.000000 -0.000051 -0.000001 -0.000000 -11.145212 -0.000411 -0.004773 -4.920354 -0.003518 -0.031829 -4.990848 0.014265 -0.031878 -4.528900 -0.157049 -0.090978 -3.824732 -0.000014 0.000047 -12.827140 -0.000005 0.000096 -13.973930 0.038146 0.189408 -0.274877 -16.256798 -0.000021 0.000025 0.000012 -0.000000 -0.000002 0.000000 0.000000 -0.000003 -0.000004 0.000007 -0.000017 0.000130 -0.000081 0.000011 0.000003 -0.000005 -0.000004 0.000002 -0.000003 0.000005 0.000001 -0.000000 0.000002 0.000128 0.000081 -0.000029 0.000006 -0.000006 0.000000 -0.000002 0.000004 -0.000002 0.000000 0.000007 0.000005 -0.000661 18.210249 11.152866 86.663633 -26.405540 21.428875 -0.737676 0.116655 -0.195357 18.513562 1.709275 -12.560600 7.790787 6.616657 -4.112996 -3.604290 7.332802 -4.739454 -9.560364 -1.930446 -1.162450 -9.558647 -1.939244 -1.162939 -8.695714 -4.413319 -1.403619 -8.694190 -4.417423 -1.404904 -6.794818 -7.019211 -1.194352 -6.803991 -7.030288 -1.197758 -5.660598 -7.942550 -1.448091 -5.652339 -7.952108 -1.449409 0.001131 -15.840691 -10.665356 89.454994 19.466244 -18.773303 6.495252 0.913903 -1.776092 10.068938 -5.030103 6.230845 13.038257 -1.019255 2.081559 6.105151 2.938420 0.705692 5.412235 -1.170305 -0.512570 4.847260 -1.053647 -0.463575 4.890768 -2.589239 -0.499210 4.383789 -2.315171 -0.454154 3.806204 -4.039490 -0.308445 3.411071 -3.617348 -0.287960 3.129446 -4.566954 -0.471321 2.804756 -4.089061 -0.436165 0.633826 -4.949123 7.650321 0.931584 -0.204172 10.545726 0.305782 -0.202162 3.547140 0.377802 -0.200853 4.074382 0.778882 -0.198034 7.700146 1.136147 -0.185745 10.620862 1.431101 -0.174570 12.702555 1.482723 0.907736 14.763918 1.309454 2.642264 19.191904 0.173714 5.462547 22.772401 39.040128 -1.036600 -3.214041 -2.041858 -0.048879 -0.470113 42.716403 -0.540912 7.559535 -0.000002 -0.000001 -0.000001 -0.000002 0.000001 -0.000002 -0.000013 -0.000003 0.000001 -0.001023 0.003375 -0.000792 -0.001923 0.006358 -0.001498 9.287485 1.842906 2.887481 28.424773 -2.361916 -6.094638 33.947758 2.428099 -2.767101 15.398247 -6.822142 -4.952833 15.429462 -7.789176 -3.380207 16.860226 -5.532624 -0.863494 17.162174 -4.625286 1.934157 16.868373 -3.205936 5.215321 
-17.062626 0.000002 36.000000 -0.000000 0.000000 -0.000051 -0.000000 -0.000000 -9.166425 -0.000415 -0.004774 -4.810126 -0.007456 -0.080427 -4.715226 0.004127 -0.078770 -4.597665 -0.285382 -0.150069 -4.882460 -0.000015 0.000047 -13.408485 -0.000005 0.000096 -14.969473 0.050195 0.400542 -0.244162 -16.275902 -0.000022 0.000023 0.000009 -0.000001 0.000002 -0.000000 0.000000 -0.000005 -0.000005 0.000007 -0.000017 0.000130 -0.000081 0.000011 0.000003 -0.000002 0.000002 0.000005 -0.000005 0.000009 0.000001 -0.000000 -0.000002 0.000128 0.000081 -0.000032 0.000003 -0.000006 -0.000005 -0.000006 0.000003 -0.000003 0.000000 0.000007 0.000000 -0.000613 18.051210 11.070321 84.976433 -26.343664 18.079944 -4.917527 0.825698 -1.274648 18.150007 2.782743 -12.308476 8.509000 5.826438 -3.859027 -2.996278 6.655006 -4.529010 -8.631171 -1.751122 -1.033015 -8.629163 -1.759911 -1.036072 -7.845644 -3.994996 -1.237949 -7.844183 -3.998780 -1.239063 -6.126426 -6.345049 -1.041495 -6.133922 -6.355004 -1.044229 -5.099080 -7.178621 -1.272668 -5.091379 -7.187295 -1.273280 0.000920 -16.024881 -10.869684 90.346484 19.984626 -20.235004 6.512929 0.916111 -1.781051 8.580832 -4.849599 6.404332 12.659241 -1.410239 2.246515 5.278409 2.117233 1.105714 4.304070 -0.926600 -0.417628 3.661915 -0.792274 -0.358401 3.887456 -2.064911 -0.416778 3.312409 -1.745589 -0.359385 3.026731 -3.210748 -0.270172 2.577283 -2.730771 -0.237363 2.490534 -3.628449 -0.397057 2.120481 -3.086640 -0.347835 0.626814 -4.949792 7.569433 0.891952 -0.175510 10.140166 0.265313 -0.172848 3.181878 0.314349 -0.171941 3.535568 0.671301 -0.171297 6.855608 0.975123 -0.162429 9.424149 1.206514 -0.154852 11.113066 1.268675 0.783053 12.814402 1.146557 2.356178 17.105546 0.150980 5.010597 21.147191 38.377685 -2.033364 -2.413345 -1.392468 -0.035151 -0.320424 44.730048 1.121407 6.671215 0.000004 -0.000011 0.000004 -0.000000 0.000002 0.000002 0.000105 -0.000381 0.000047 -0.000580 0.001926 -0.000454 -0.002036 0.006771 -0.001593 10.808931 1.301218 2.970807 26.784442 -2.144865 -5.779295 33.613355 3.316945 -3.482631 16.039412 -7.137896 -5.126197 16.077516 -8.136684 -3.477968 17.574664 -5.771883 -0.865294 17.893824 -4.807508 2.048226 17.586836 -3.309967 5.460808 
